<svg width="17" height="14" viewBox="0 0 17 14" fill="none" xmlns="http://www.w3.org/2000/svg">
<path d="M15.3329 6.04163H3.27127L7.3854 1.9275C7.75915 1.55375 7.75915 0.947128 7.3854 0.57242C7.01165 0.197712 6.40502 0.19867 6.03031 0.57242L0.280312 6.32242C-0.0934375 6.69617 -0.0934375 7.30279 0.280312 7.6775L6.03031 13.4275C6.21719 13.6144 6.46156 13.7083 6.70785 13.7083C6.95415 13.7083 7.19852 13.6144 7.3854 13.4275C7.75915 13.0538 7.75915 12.4471 7.3854 12.0724L3.27127 7.9583H15.3329C15.8628 7.9583 16.2912 7.52992 16.2912 6.99996C16.2912 6.47 15.8628 6.04163 15.3329 6.04163Z" fill="#1DA1F2"/>
</svg>
