<svg width="111" height="24" viewBox="0 0 111 24" fill="none" xmlns="http://www.w3.org/2000/svg">
<path d="M6.86719 23.2188C4.05469 22.4297 2.64844 20.6133 2.64844 17.7695V15.4375C2.64844 13.7891 1.95312 12.9648 0.5625 12.9648V10.5391C1.92188 10.5391 2.61719 9.76172 2.64844 8.20703V5.72266C2.64844 4.27734 3 3.10938 3.70312 2.21875C4.40625 1.32812 5.46094 0.683594 6.86719 0.285156L7.52344 2.17188C6.92969 2.39063 6.48047 2.77344 6.17578 3.32031C5.87109 3.85938 5.71094 4.60938 5.69531 5.57031V8.03125C5.69531 9.79688 4.99609 11.0352 3.59766 11.7461C4.99609 12.4648 5.69531 13.7109 5.69531 15.4844V17.9688C5.73438 19.7969 6.34375 20.9141 7.52344 21.3203L6.86719 23.2188ZM13.2773 3.20312V6.32031H15.4453V8.80469H13.2773V15.1328C13.2773 15.6016 13.3672 15.9375 13.5469 16.1406C13.7266 16.3438 14.0703 16.4453 14.5781 16.4453C14.9531 16.4453 15.2852 16.418 15.5742 16.3633V18.9297C14.9102 19.1328 14.2266 19.2344 13.5234 19.2344C11.1484 19.2344 9.9375 18.0352 9.89062 15.6367V8.80469H8.03906V6.32031H9.89062V3.20312H13.2773ZM24.9258 17.7109C24.0898 18.7266 22.9336 19.2344 21.457 19.2344C20.0977 19.2344 19.0586 18.8438 18.3398 18.0625C17.6289 17.2812 17.2656 16.1367 17.25 14.6289V6.32031H20.6367V14.5117C20.6367 15.832 21.2383 16.4922 22.4414 16.4922C23.5898 16.4922 24.3789 16.0938 24.8086 15.2969V6.32031H28.207V19H25.0195L24.9258 17.7109ZM34.3359 19H30.9375V6.32031H34.3359V19ZM30.7383 3.03906C30.7383 2.53125 30.9062 2.11328 31.2422 1.78516C31.5859 1.45703 32.0508 1.29297 32.6367 1.29297C33.2148 1.29297 33.6758 1.45703 34.0195 1.78516C34.3633 2.11328 34.5352 2.53125 34.5352 3.03906C34.5352 3.55469 34.3594 3.97656 34.0078 4.30469C33.6641 4.63281 33.207 4.79688 32.6367 4.79688C32.0664 4.79688 31.6055 4.63281 31.2539 4.30469C30.9102 3.97656 30.7383 3.55469 30.7383 3.03906ZM41.1914 3.20312V6.32031H43.3594V8.80469H41.1914V15.1328C41.1914 15.6016 41.2812 15.9375 41.4609 16.1406C41.6406 16.3438 41.9844 16.4453 42.4922 16.4453C42.8672 16.4453 43.1992 16.418 43.4883 16.3633V18.9297C42.8242 19.1328 42.1406 19.2344 41.4375 19.2344C39.0625 19.2344 37.8516 18.0352 37.8047 15.6367V8.80469H35.9531V6.32031H37.8047V3.20312H41.1914ZM51.082 19.2344C49.2227 19.2344 47.707 18.6641 46.5352 17.5234C45.3711 16.3828 44.7891 14.8633 44.7891 12.9648V12.6367C44.7891 11.3633 45.0352 10.2266 45.5273 9.22656C46.0195 8.21875 46.7148 7.44531 47.6133 6.90625C48.5195 6.35937 49.5508 6.08594 50.707 6.08594C52.4414 6.08594 53.8047 6.63281 54.7969 7.72656C55.7969 8.82031 56.2969 10.3711 56.2969 12.3789V13.7617H48.2227C48.332 14.5898 48.6602 15.2539 49.207 15.7539C49.7617 16.2539 50.4609 16.5039 51.3047 16.5039C52.6094 16.5039 53.6289 16.0312 54.3633 15.0859L56.0273 16.9492C55.5195 17.668 54.832 18.2305 53.9648 18.6367C53.0977 19.0352 52.1367 19.2344 51.082 19.2344ZM50.6953 8.82812C50.0234 8.82812 49.4766 9.05469 49.0547 9.50781C48.6406 9.96094 48.375 10.6094 48.2578 11.4531H52.9688V11.1836C52.9531 10.4336 52.75 9.85547 52.3594 9.44922C51.9688 9.03516 51.4141 8.82812 50.6953 8.82812ZM103.078 21.3203C104.266 20.8984 104.875 19.7656 104.906 17.9219V15.4375C104.906 13.6719 105.621 12.4453 107.051 11.7578C105.621 11.0703 104.906 9.82422 104.906 8.01953V5.57031C104.875 3.75 104.266 2.61719 103.078 2.17188L103.734 0.285156C105.133 0.675781 106.184 1.31641 106.887 2.20703C107.59 3.08984 107.945 4.25 107.953 5.6875V8.20703C107.984 9.76172 108.68 10.5391 110.039 10.5391V12.9648C108.648 12.9648 107.953 13.7812 107.953 15.4141V17.957C107.891 20.6914 106.484 22.4453 103.734 23.2188L103.078 21.3203Z" fill="white"/>
<path d="M65.5781 19C65.4219 18.6953 65.3086 18.3164 65.2383 17.8633C64.418 18.7773 63.3516 19.2344 62.0391 19.2344C60.7969 19.2344 59.7656 18.875 58.9453 18.1562C58.1328 17.4375 57.7266 16.5312 57.7266 15.4375C57.7266 14.0938 58.2227 13.0625 59.2148 12.3438C60.2148 11.625 61.6562 11.2617 63.5391 11.2539H65.0977V10.5273C65.0977 9.94141 64.9453 9.47266 64.6406 9.12109C64.3438 8.76953 63.8711 8.59375 63.2227 8.59375C62.6523 8.59375 62.2031 8.73047 61.875 9.00391C61.5547 9.27734 61.3945 9.65234 61.3945 10.1289H58.0078C58.0078 9.39453 58.2344 8.71484 58.6875 8.08984C59.1406 7.46484 59.7812 6.97656 60.6094 6.625C61.4375 6.26562 62.3672 6.08594 63.3984 6.08594C64.9609 6.08594 66.1992 6.48047 67.1133 7.26953C68.0352 8.05078 68.4961 9.15234 68.4961 10.5742V16.0703C68.5039 17.2734 68.6719 18.1836 69 18.8008V19H65.5781ZM62.7773 16.6445C63.2773 16.6445 63.7383 16.5352 64.1602 16.3164C64.582 16.0898 64.8945 15.7891 65.0977 15.4141V13.2344H63.832C62.1367 13.2344 61.2344 13.8203 61.125 14.9922L61.1133 15.1914C61.1133 15.6133 61.2617 15.9609 61.5586 16.2344C61.8555 16.5078 62.2617 16.6445 62.7773 16.6445ZM82.5234 12.7773C82.5234 14.8086 82.0898 16.3945 81.2227 17.5352C80.3555 18.668 79.1445 19.2344 77.5898 19.2344C76.2148 19.2344 75.1172 18.707 74.2969 17.6523L74.1445 19H71.0977V1H74.4844V7.45703C75.2656 6.54297 76.293 6.08594 77.5664 6.08594C79.1133 6.08594 80.3242 6.65625 81.1992 7.79688C82.082 8.92969 82.5234 10.5273 82.5234 12.5898V12.7773ZM79.1367 12.5312C79.1367 11.25 78.9336 10.3164 78.5273 9.73047C78.1211 9.13672 77.5156 8.83984 76.7109 8.83984C75.6328 8.83984 74.8906 9.28125 74.4844 10.1641V15.168C74.8984 16.0586 75.6484 16.5039 76.7344 16.5039C77.8281 16.5039 78.5469 15.9648 78.8906 14.8867C79.0547 14.3711 79.1367 13.5859 79.1367 12.5312ZM88.1953 19H84.7969V1H88.1953V19ZM96.832 19.2344C94.9727 19.2344 93.457 18.6641 92.2852 17.5234C91.1211 16.3828 90.5391 14.8633 90.5391 12.9648V12.6367C90.5391 11.3633 90.7852 10.2266 91.2773 9.22656C91.7695 8.21875 92.4648 7.44531 93.3633 6.90625C94.2695 6.35937 95.3008 6.08594 96.457 6.08594C98.1914 6.08594 99.5547 6.63281 100.547 7.72656C101.547 8.82031 102.047 10.3711 102.047 12.3789V13.7617H93.9727C94.082 14.5898 94.4102 15.2539 94.957 15.7539C95.5117 16.2539 96.2109 16.5039 97.0547 16.5039C98.3594 16.5039 99.3789 16.0312 100.113 15.0859L101.777 16.9492C101.27 17.668 100.582 18.2305 99.7148 18.6367C98.8477 19.0352 97.8867 19.2344 96.832 19.2344ZM96.4453 8.82812C95.7734 8.82812 95.2266 9.05469 94.8047 9.50781C94.3906 9.96094 94.125 10.6094 94.0078 11.4531H98.7188V11.1836C98.7031 10.4336 98.5 9.85547 98.1094 9.44922C97.7188 9.03516 97.1641 8.82812 96.4453 8.82812Z" fill="#999B9E"/>
</svg>
